<mxfile host="app.diagrams.net" modified="2024-05-09T10:40:44.314Z" agent="Mozilla/5.0 (Windows NT 10.0; Win64; x64) AppleWebKit/537.36 (KHTML, like Gecko) Chrome/124.0.0.0 Safari/537.36" version="24.3.1" etag="JQtr2tEy1FtOqZrfm6zv" type="github">
  <diagram name="Page-1" id="l1xU8scC7hM6lyKr-MFQ">
    <mxGraphModel>
      <root>
        <mxCell id="0" />
        <mxCell id="1" parent="0" />
      </root>
    </mxGraphModel>
  </diagram>
</mxfile>
